<svg width="282" height="281" viewBox="0 0 282 281" fill="none" xmlns="http://www.w3.org/2000/svg">
<path d="M137.7 1.68002C136.98 2.22002 136.08 3.24002 135.6 3.90002C135.06 4.68002 135.36 4.56002 136.5 3.54002C137.52 2.64002 139.26 1.74002 140.4 1.50002L142.5 1.08002L139.62 3.72002C137.34 5.76002 136.5 7.02002 135.72 9.78002C135.18 11.7 134.46 13.26 134.1 13.2C133.38 13.14 133.32 10.68 133.98 8.10002C134.34 6.60002 134.34 6.48002 133.74 7.44002C133.32 8.10002 132.9 10.44 132.72 12.66C132.48 16.08 132.66 17.16 134.04 20.1C134.88 22.02 135.6 23.88 135.6 24.24C135.6 24.66 134.52 26.04 133.2 27.3C130.5 29.94 130.2 31.68 132.06 33.36C133.5 34.62 135.54 38.7 135.6 40.32C135.6 41.1 134.82 41.4 132.18 41.7C125.04 42.48 115.32 44.52 109.26 46.56C100.62 49.44 88.98 55.56 81.42 61.2C77.94 63.84 74.94 66 74.76 66C73.74 66 72 61.8 72 59.4C72 55.44 71.46 54.96 66.78 54.6L62.7 54.3L61.2 50.46C58.5 43.74 51.48 39 45.42 39.78C42 40.26 40.68 41.82 40.44 45.72C40.26 48.6 40.32 48.66 40.74 46.5C41.22 43.8 42.36 41.4 43.14 41.4C43.44 41.4 43.44 42.54 43.14 43.92C42.42 46.98 42.9 49.44 44.76 52.2C47.1 55.56 46.56 56.88 43.92 54.42C42.42 53.1 42.42 53.1 43.14 54.42C44.22 56.52 48.42 59.76 51.12 60.54C54.84 61.68 55.2 62.1 55.2 66.06C55.2 70.38 56.1 71.4 59.88 71.4C62.52 71.4 66.6 73.14 66.6 74.22C66.6 74.52 64.98 76.74 63 79.2C51.78 93.18 43.62 112.98 42.24 129.78C42 132.36 41.64 134.58 41.4 134.7C40.5 135.24 36.48 133.62 34.56 131.94C31.86 129.6 30.12 129.72 27.6 132.3C25.26 134.76 23.76 134.94 20.28 133.14C15 130.44 4.43999 132.66 1.73999 137.04C-1.38001 142.2 2.39999 147 11.04 148.8C14.82 149.58 18.78 148.98 21.24 147.24C23.28 145.86 25.08 146.28 27.84 148.8C30.42 151.2 31.98 151.74 32.7 150.54C33.78 148.92 38.1 146.4 40.02 146.4C41.94 146.4 42 146.46 42 148.98C42 153.36 44.34 164.94 46.56 171.6C50.46 183.18 55.38 192.54 62.82 202.02L66.66 207L64.68 208.2C63.6 208.8 61.5 209.52 60 209.7C58.5 209.94 56.88 210.12 56.4 210.18C55.92 210.24 55.44 210.72 55.38 211.2C55.32 211.68 55.08 213.66 54.9 215.52L54.54 218.94L50.88 220.32C46.2 222.12 41.82 226.68 40.5 231.12C39.36 234.96 39.36 236.04 40.5 238.2C41.46 240.06 42.48 240.78 45.18 241.44C46.32 241.68 46.74 241.62 46.5 241.2C46.32 240.9 45.66 240.6 45.12 240.6C44.58 240.6 43.44 240.06 42.6 239.4L41.1 238.2L44.76 238.56C47.64 238.86 48.9 238.74 50.46 237.9C51.6 237.3 53.28 236.46 54.18 235.98C55.14 235.5 56.04 235.26 56.22 235.44C56.76 235.98 54.54 238.2 52.2 239.46C51.06 240.06 50.4 240.54 50.76 240.6C51.9 240.6 57 236.88 58.56 234.9C59.34 233.82 60.42 231.72 60.96 230.16C62.04 226.98 63.3 226.2 67.44 226.2C70.56 226.2 71.4 225.42 71.4 222.48C71.4 219.9 72.54 216.66 73.86 215.58C74.58 215.04 75.36 215.4 77.94 217.56C86.34 224.52 98.94 231.48 109.5 234.9C115.2 236.76 124.68 238.8 132.18 239.7C134.52 240 135 240.3 135 241.32C135 243.06 133.38 246.24 131.64 247.86C129.66 249.72 129.84 250.86 132.6 254.1C133.92 255.6 135 257.1 135 257.34C135 257.64 134.28 259.38 133.44 261.3C132.12 264.18 131.88 265.32 132.12 268.44C132.72 275.46 136.2 280.8 140.22 280.8C142.62 280.8 145.26 279.42 146.4 277.56L147.18 276.3L145.74 277.56C143.94 279.18 141.96 280.2 140.64 280.2C139.98 280.2 140.58 279.36 142.38 277.74C144.6 275.82 145.38 274.62 146.22 271.74C147.78 266.52 149.34 267.9 148.02 273.3C147.66 274.8 147.66 274.92 148.26 273.96C148.68 273.3 149.1 270.96 149.28 268.74C149.52 265.32 149.34 264.24 147.96 261.3C147.12 259.38 146.4 257.64 146.4 257.34C146.4 257.04 147.48 255.6 148.8 254.16C150.12 252.72 151.2 251.1 151.2 250.5C151.2 249.96 150.42 248.46 149.4 247.2C147.6 244.92 146.4 242.4 146.4 240.9C146.4 240.36 147.54 239.94 149.88 239.7C169.86 237.48 188.34 230.1 202.74 218.52C204.84 216.78 206.82 215.4 207.12 215.4C208.26 215.4 210 219.42 210 222.06C210 225.72 211.2 226.8 215.28 226.8C218.82 226.8 219.84 227.58 220.92 231.18C222.6 236.94 230.76 242.4 236.58 241.62C240 241.14 241.32 239.58 241.56 235.68C241.74 232.8 241.68 232.74 241.26 234.9C240.78 237.54 239.64 240 238.86 240C238.56 240 238.56 238.74 238.86 237.24C239.46 233.94 239.1 232.02 237.18 229.2C234.72 225.54 235.68 224.22 238.44 227.46C239.28 228.48 240 229.56 240 229.92C240 230.28 240.18 230.46 240.36 230.28C240.9 229.74 239.52 227.52 236.88 224.64C235.32 222.96 233.52 221.76 231.54 221.1C227.46 219.72 226.8 218.88 226.8 215.1C226.8 211.02 225.84 210 222.12 210C219.42 210 215.4 208.26 215.4 207.12C215.4 206.88 216.54 205.32 217.92 203.7C229.5 189.78 238.32 168.72 239.82 151.5C240.06 148.44 240.42 146.94 241.02 146.7C242.22 146.28 246.6 148.32 248.04 149.94C249.78 151.86 252 151.56 254.4 149.1C256.74 146.64 258.24 146.46 261.72 148.26C263.76 149.28 265.02 149.46 268.74 149.28C276.3 148.92 281.4 145.5 281.4 140.82C281.4 134.4 269.16 130.08 261.48 133.68C259.92 134.4 258.24 135 257.7 135C257.22 135 255.6 133.92 254.16 132.6C251.58 130.2 250.02 129.66 249.3 130.86C248.28 132.48 243.9 135 242.1 135H240.18L239.82 130.32C239.1 120.66 235.14 106.62 230.58 97.56C227.28 90.96 224.58 86.58 219.78 80.22L215.4 74.4L217.32 73.2C219.24 72.06 220.98 71.58 224.7 71.28C226.44 71.1 226.5 71.04 226.92 66.96C227.16 64.68 227.52 62.64 227.82 62.4C228.06 62.16 229.86 61.38 231.78 60.6C237.6 58.32 242.52 51.48 242.34 45.96C242.28 44.16 242.28 44.16 241.74 46.38C240.6 51.18 238.02 54.3 234.6 54.96L232.5 55.38L235.62 52.56C237.96 50.46 238.86 49.14 239.16 47.52C239.4 46.32 239.94 44.58 240.36 43.68C241.14 42.18 241.08 42 239.88 41.16C238.02 39.84 233.46 39.96 230.16 41.4C226.38 43.02 222.24 47.28 221.34 50.52C220.32 54.12 218.94 55.2 215.16 55.2C213.42 55.2 211.74 55.5 211.32 55.92C210.9 56.34 210.6 57.84 210.6 59.34C210.6 60.9 210.18 62.88 209.7 63.84C209.22 64.74 208.8 65.94 208.8 66.36C208.8 66.84 208.68 67.2 208.5 67.2C208.32 67.2 206.1 65.52 203.52 63.48C188.46 51.48 171.36 44.28 152.46 42C149.7 41.7 147.3 41.28 147.12 41.16C146.4 40.38 147.84 36.54 149.7 34.38C150.84 33 151.8 31.38 151.8 30.78C151.8 30.18 150.72 28.56 149.4 27.3C148.08 26.04 147 24.66 147 24.24C147 23.88 147.72 22.02 148.56 20.1C149.94 17.16 150.12 16.08 149.88 12.66C149.58 8.34002 147.9 4.38002 145.38 2.04002C143.46 0.300025 139.56 0.120025 137.7 1.68002ZM135.54 84.36L135.42 107.94L132.06 108.96C130.2 109.44 127.2 110.7 125.4 111.66L122.16 113.4L105.24 96.54L88.26 79.62L90.48 77.82C97.98 71.76 107.82 66.6 117.3 63.66C124.26 61.56 133.8 59.82 135.18 60.48C135.48 60.6 135.6 71.34 135.54 84.36ZM156.3 61.56C162.12 62.64 169.2 64.92 175.08 67.56C179.34 69.48 189.42 75.9 192.6 78.6L194.1 79.92L177.12 96.72L160.14 113.58L157.02 111.9C155.34 110.94 152.46 109.74 150.66 109.14L147.3 108.12L147.12 84.12L147 60.06L149.22 60.36C150.48 60.54 153.66 61.08 156.3 61.56ZM97.38 105.06L113.94 121.86L112.44 124.02C111.6 125.22 110.34 128.22 109.62 130.62L108.3 135H84.48H60.6V133.14C60.6 130.26 62.82 120.12 64.56 114.84C66.42 109.26 69.96 102.06 73.5 96.6C76.2 92.34 79.62 88.2 80.4 88.2C80.64 88.2 88.32 95.76 97.38 105.06ZM205.98 92.88C210.06 98.34 215.22 108.18 217.5 114.84C219.18 119.88 221.4 130.2 221.4 133.2V135H197.52H173.64L172.86 131.94C172.44 130.32 171.24 127.32 170.28 125.28L168.42 121.68L185.16 104.94C194.34 95.76 202.02 88.2 202.2 88.2C202.38 88.2 204.06 90.3 205.98 92.88ZM148.38 111.9C156.84 114.12 163.56 119.64 167.4 127.44C172.38 137.58 171.78 147.78 165.72 157.02C158.76 167.7 145.44 172.74 133.08 169.26C118.92 165.36 109.44 151.08 111.54 136.92C113.28 125.04 122.1 114.96 133.26 111.96C137.52 110.82 144.12 110.76 148.38 111.9ZM7.55999 143.46C8.15999 144 9.35999 144.66 10.2 144.84C15.06 146.22 16.56 147.6 13.08 147.6C10.56 147.6 6.71999 145.8 4.91999 143.88C4.19999 143.04 3.41999 141.3 3.17999 140.04L2.81999 137.7L4.61999 140.1C5.63999 141.42 6.95999 142.92 7.55999 143.46ZM277.68 143.82C274.38 147.36 268.2 148.74 265.38 146.52C264.06 145.5 264.12 145.5 268.08 145.5C271.62 145.5 272.46 145.26 275.04 143.58C278.34 141.42 279.84 141.54 277.68 143.82ZM109.08 149.22C109.5 150.84 110.7 153.78 111.72 155.88L113.64 159.66L96.84 176.46C87.66 185.64 79.98 193.2 79.8 193.2C78.96 193.2 72.24 183.24 69.66 178.2C64.8 168.78 61.86 159.54 60.84 150.12L60.42 146.4H84.42H108.36L109.08 149.22ZM221.16 150.12C220.62 155.22 218.52 163.86 216.84 168.48C213.78 176.58 206.76 188.58 203.1 192L201.48 193.5L189.18 180.9C182.4 173.94 174.96 166.38 172.62 163.98L168.42 159.66L170.28 155.88C171.3 153.78 172.44 150.84 172.86 149.22L173.64 146.4H197.58H221.58L221.16 150.12ZM125.1 169.56C126.66 170.46 129.42 171.66 131.28 172.2L134.7 173.28L134.88 197.04L135 220.8H132.66C127.02 220.8 115.14 217.56 106.98 213.84C102.72 211.92 92.58 205.5 89.46 202.8L87.96 201.54L104.76 184.74C113.94 175.56 121.68 168 121.86 168C122.1 168 123.54 168.72 125.1 169.56ZM176.7 184.8L193.44 201.54L192.3 202.86C190.38 204.96 180.96 210.96 175.62 213.48C167.7 217.26 156.54 220.44 149.4 220.92L146.7 221.1L146.52 203.4C146.46 193.68 146.58 182.88 146.82 179.46L147.3 173.28L150.9 172.14C152.88 171.54 155.58 170.34 156.9 169.56C158.22 168.78 159.42 168.06 159.6 168.06C159.78 168 167.46 175.56 176.7 184.8Z" fill="#5F7FD2"/>
<path d="M135.6 115.44C127.74 117.12 121.38 122.1 117.78 129.48C115.56 133.92 115.5 134.22 115.5 140.7C115.5 147.18 115.56 147.48 117.78 151.92C127.38 171.42 154.62 171.42 164.22 151.92C166.44 147.48 166.5 147.18 166.5 140.7C166.5 134.22 166.44 133.92 164.22 129.48C160.44 121.8 153.84 116.82 145.5 115.26C141.24 114.48 139.86 114.48 135.6 115.44Z" fill="#5F7FD2"/>
<path d="M41.4 51.54C41.4 51.9 41.64 52.32 42 52.5C42.36 52.68 42.42 52.44 42.24 51.96C41.82 50.88 41.4 50.7 41.4 51.54Z" fill="#5F7FD2"/>
<path d="M48.48 241.02C48.9 241.2 49.44 241.14 49.62 240.96C49.86 240.78 49.5 240.6 48.84 240.66C48.18 240.66 48 240.84 48.48 241.02Z" fill="#5F7FD2"/>
</svg>
